<svg width="100%" height="auto" viewBox="0 0 807 40" fill="none" xmlns="http://www.w3.org/2000/svg" preserveAspectRatio="none">
<path fill-rule="evenodd" clip-rule="evenodd" d="M0 20V20C0 18.9664 0.504216 17.9978 1.35087 17.405L25.1747 0.723392C25.8471 0.252555 26.6481 0 27.469 0H88.0364H803C805.209 0 807 1.79086 807 4V20V20C807 20.8196 806.6 21.5877 805.929 22.0578L781.338 39.2766C780.665 39.7474 779.864 40 779.043 40H718.964H4C1.79086 40 0 38.2091 0 36V20ZM806.855 39.8328C806.782 39.8844 806.818 40 806.908 40V40C806.959 40 807 39.9589 807 39.9081V39.9081C807 39.8338 806.916 39.7902 806.855 39.8328V39.8328Z" fill="#FEFEFE"/>
</svg>
