<svg width="100%" height="auto" viewBox="0 0 607 40" fill="none" xmlns="http://www.w3.org/2000/svg" preserveAspectRatio="none">
<mask id="path-1-inside-1_690_104" fill="white">
<path fill-rule="evenodd" clip-rule="evenodd" d="M0.213867 20V20C0.213867 19.8446 0.290702 19.6991 0.419128 19.6116L28.1559 0.695356C28.8202 0.242322 29.6056 0 30.4096 0H66.4087H603C605.209 0 607 1.79086 607 4V20V20C607 20.3798 606.812 20.735 606.499 20.949L579.584 39.3046C578.92 39.7577 578.134 40 577.33 40H540.805H4.21387C2.00473 40 0.213867 38.2091 0.213867 36V20ZM606.476 39.3881C606.204 39.5739 606.335 40 606.665 40V40C606.85 40 607 39.85 607 39.6649V39.6649C607 39.3957 606.699 39.2364 606.476 39.3881V39.3881ZM0.213867 0.459034C0.213867 0.205516 0.419384 0 0.672901 0V0C1.12458 0 1.30469 0.583779 0.931536 0.838269V0.838269C0.62683 1.04608 0.213867 0.827855 0.213867 0.459034V0.459034Z"/>
</mask>
<path d="M606.499 20.949L605.935 20.1228L606.499 20.949ZM579.584 39.3046L580.147 40.1308L579.584 39.3046ZM28.1559 0.695356L28.7193 1.52152L28.1559 0.695356ZM0.419128 19.6116L0.982562 20.4377L0.419128 19.6116ZM27.5924 -0.130805L-0.144306 18.7854L0.982562 20.4377L28.7193 1.52152L27.5924 -0.130805ZM66.4087 -1H30.4096V1H66.4087V-1ZM603 -1H66.4087V1H603V-1ZM608 20V4H606V20H608ZM580.147 40.1308L607.062 21.7751L605.935 20.1228L579.02 38.4785L580.147 40.1308ZM540.805 41H577.33V39H540.805V41ZM4.21387 41H540.805V39H4.21387V41ZM-0.786133 20V36H1.21387V20H-0.786133ZM0.368102 0.0121082C0.727195 -0.23279 1.21387 0.0243809 1.21387 0.459034H-0.786133C-0.786133 1.63133 0.526465 2.32494 1.49497 1.66443L0.368102 0.0121082ZM0.672901 -1C-0.132901 -1 -0.786133 -0.346769 -0.786133 0.459034H1.21387C1.21387 0.757801 0.971668 1 0.672901 1V-1ZM608 39.6649C608 38.5922 606.799 37.9575 605.913 38.5619L607.04 40.2143C606.598 40.5153 606 40.1992 606 39.6649H608ZM606.665 39C607.319 39 607.58 39.8456 607.04 40.2143L605.913 38.5619C604.828 39.3021 605.351 41 606.665 41V39ZM4.21387 39C2.55701 39 1.21387 37.6569 1.21387 36H-0.786133C-0.786133 38.7614 1.45244 41 4.21387 41V39ZM606 20C606 20.0491 605.976 20.0951 605.935 20.1228L607.062 21.7751C607.649 21.3749 608 20.7104 608 20H606ZM603 1C604.657 1 606 2.34315 606 4H608C608 1.23858 605.762 -1 603 -1V1ZM579.02 38.4785C578.522 38.8183 577.933 39 577.33 39V41C578.335 41 579.317 40.6971 580.147 40.1308L579.02 38.4785ZM0.672901 1C0.140605 1 -0.0716613 0.312023 0.368102 0.0121082L1.49497 1.66443C2.68105 0.855535 2.10855 -1 0.672901 -1V1ZM28.7193 1.52152C29.2175 1.18174 29.8066 1 30.4096 1V-1C29.4045 -1 28.4228 -0.697098 27.5924 -0.130805L28.7193 1.52152ZM606.665 41C607.402 41 608 40.4023 608 39.6649H606C606 39.2977 606.298 39 606.665 39V41ZM1.21387 20C1.21387 20.1752 1.12728 20.339 0.982562 20.4377L-0.144306 18.7854C-0.54588 19.0593 -0.786133 19.5139 -0.786133 20H1.21387Z" fill="#FEFEFE" mask="url(#path-1-inside-1_690_104)"/>
</svg>
