<svg width="100%" height="auto" viewBox="0 0 527 40" fill="none" xmlns="http://www.w3.org/2000/svg" preserveAspectRatio="none">
<mask id="path-1-inside-1_698_214" fill="white">
<path fill-rule="evenodd" clip-rule="evenodd" d="M0 20V20C0 19.8441 0.0760381 19.6981 0.20372 19.6087L27.1747 0.723392C27.8471 0.252555 28.6481 0 29.469 0H57.4909H523C525.209 0 527 1.79086 527 4V20V20C527 20.8196 526.6 21.5877 525.929 22.0578L501.338 39.2766C500.665 39.7474 499.864 40 499.043 40H469.509H4C1.79086 40 0 38.2091 0 36V20ZM526.855 39.8328C526.782 39.8844 526.818 40 526.908 40V40C526.959 40 527 39.9589 527 39.9081V39.9081C527 39.8338 526.916 39.7902 526.855 39.8328V39.8328ZM0 0.454459C0 0.203468 0.203468 0 0.454459 0V0C0.898755 0 1.07907 0.571891 0.715125 0.826729V0.826729C0.413926 1.03763 0 0.822155 0 0.454459V0.454459Z"/>
</mask>
<path d="M525.929 22.0578L526.502 22.877L525.929 22.0578ZM501.338 39.2766L500.764 38.4575L501.338 39.2766ZM27.1747 0.723392L26.6011 -0.0957602L27.1747 0.723392ZM26.6011 -0.0957602L-0.369857 18.7895L0.777296 20.4278L27.7482 1.54254L26.6011 -0.0957602ZM57.4909 -1H29.469V1H57.4909V-1ZM523 -1H57.4909V1H523V-1ZM528 20V4H526V20H528ZM501.911 40.0958L526.502 22.877L525.355 21.2387L500.764 38.4575L501.911 40.0958ZM469.509 41H499.043V39H469.509V41ZM4 41H469.509V39H4V41ZM-1 20V36H1V20H-1ZM0.141549 0.00757713C0.503115 -0.245594 1 0.0130681 1 0.454459H-1C-1 1.63124 0.324738 2.32086 1.2887 1.64588L0.141549 0.00757713ZM0.454459 -1C-0.348817 -1 -1 -0.348817 -1 0.454459H1C1 0.755753 0.755753 1 0.454459 1V-1ZM528 39.9081C528 39.0247 527.006 38.507 526.282 39.0137L527.429 40.652C526.827 41.0734 526 40.6428 526 39.9081H528ZM526.908 39C527.796 39 528.156 40.1428 527.429 40.652L526.282 39.0137C525.407 39.6259 525.841 41 526.908 41V39ZM4 39C2.34315 39 1 37.6569 1 36H-1C-1 38.7614 1.23858 41 4 41V39ZM526 20C526 20.4934 525.759 20.9557 525.355 21.2387L526.502 22.877C527.441 22.2197 528 21.1459 528 20H526ZM523 1C524.657 1 526 2.34315 526 4H528C528 1.23858 525.761 -1 523 -1V1ZM500.764 38.4575C500.26 38.8106 499.659 39 499.043 39V41C500.07 41 501.071 40.6843 501.911 40.0958L500.764 38.4575ZM0.454459 1C-0.0788847 1 -0.295341 0.313491 0.141549 0.00757713L1.2887 1.64588C2.45348 0.830291 1.8764 -1 0.454459 -1V1ZM27.7482 1.54254C28.2526 1.18942 28.8533 1 29.469 1V-1C28.4429 -1 27.4416 -0.684306 26.6011 -0.0957602L27.7482 1.54254ZM526.908 41C527.511 41 528 40.5111 528 39.9081H526C526 39.4066 526.407 39 526.908 39V41ZM1 20C1 20.1704 0.916877 20.3301 0.777296 20.4278L-0.369857 18.7895C-0.764801 19.066 -1 19.5179 -1 20H1Z" fill="#FEFEFE" mask="url(#path-1-inside-1_698_214)"/>
</svg>
