<svg width="100%" height="auto" viewBox="0 0 591 40" fill="none" xmlns="http://www.w3.org/2000/svg" preserveAspectRatio="none">
<mask id="path-1-inside-1_698_184" fill="white">
<path fill-rule="evenodd" clip-rule="evenodd" d="M0 20V20C0 19.8441 0.0760381 19.6981 0.20372 19.6087L27.1747 0.723392C27.8471 0.252555 28.6481 0 29.469 0H64.4727H587C589.209 0 591 1.79086 591 4V20V20C591 20.3808 590.814 20.7376 590.502 20.956L564.338 39.2766C563.665 39.7474 562.864 40 562.043 40H526.527H4C1.79086 40 0 38.2091 0 36V20ZM590.478 39.3967C590.213 39.5827 590.344 40 590.668 40V40C590.852 40 591 39.8515 591 39.6684V39.6684C591 39.4001 590.698 39.2429 590.478 39.3967V39.3967ZM0 0.454459C0 0.203468 0.203468 0 0.454459 0V0C0.898755 0 1.07907 0.571891 0.715125 0.826729V0.826729C0.413926 1.03763 0 0.822155 0 0.454459V0.454459Z"/>
</mask>
<path d="M590.502 20.956L591.076 21.7751L590.502 20.956ZM564.338 39.2766L564.911 40.0958L564.338 39.2766ZM27.1747 0.723392L26.6011 -0.0957602L27.1747 0.723392ZM26.6011 -0.0957602L-0.369857 18.7895L0.777296 20.4278L27.7482 1.54254L26.6011 -0.0957602ZM64.4727 -1H29.469V1H64.4727V-1ZM587 -1H64.4727V1H587V-1ZM592 20V4H590V20H592ZM564.911 40.0958L591.076 21.7751L589.929 20.1368L563.764 38.4575L564.911 40.0958ZM526.527 41H562.043V39H526.527V41ZM4 41H526.527V39H4V41ZM-1 20V36H1V20H-1ZM0.141549 0.00757713C0.503115 -0.245594 1 0.0130681 1 0.454459H-1C-1 1.63124 0.324738 2.32086 1.2887 1.64588L0.141549 0.00757713ZM0.454459 -1C-0.348817 -1 -1 -0.348817 -1 0.454459H1C1 0.755753 0.755753 1 0.454459 1V-1ZM592 39.6684C592 38.591 590.787 37.9596 589.905 38.5776L591.052 40.2159C590.609 40.5261 590 40.2092 590 39.6684H592ZM590.668 39C591.322 39 591.587 39.8411 591.052 40.2159L589.905 38.5776C588.838 39.3243 589.367 41 590.668 41V39ZM4 39C2.34315 39 1 37.6569 1 36H-1C-1 38.7614 1.23858 41 4 41V39ZM590 20C590 20.0545 589.973 20.1056 589.929 20.1368L591.076 21.7751C591.655 21.3696 592 20.707 592 20H590ZM587 1C588.657 1 590 2.34315 590 4H592C592 1.23858 589.761 -1 587 -1V1ZM563.764 38.4575C563.26 38.8106 562.659 39 562.043 39V41C563.07 41 564.071 40.6843 564.911 40.0958L563.764 38.4575ZM0.454459 1C-0.0788847 1 -0.295341 0.313491 0.141549 0.00757713L1.2887 1.64588C2.45348 0.830291 1.8764 -1 0.454459 -1V1ZM27.7482 1.54254C28.2526 1.18942 28.8533 1 29.469 1V-1C28.4429 -1 27.4416 -0.684306 26.6011 -0.0957602L27.7482 1.54254ZM590.668 41C591.404 41 592 40.4038 592 39.6684H590C590 39.2992 590.299 39 590.668 39V41ZM1 20C1 20.1704 0.916877 20.3301 0.777296 20.4278L-0.369857 18.7895C-0.764801 19.066 -1 19.5179 -1 20H1Z" fill="#FEFEFE" mask="url(#path-1-inside-1_698_184)"/>
</svg>
