<svg width="100%" height="auto" viewBox="0 0 427 40" fill="none" xmlns="http://www.w3.org/2000/svg" preserveAspectRatio="none">
<mask id="path-1-inside-1_698_224" fill="white">
<path fill-rule="evenodd" clip-rule="evenodd" d="M0 20V20C0 19.8441 0.0760381 19.6981 0.20372 19.6087L27.1747 0.723392C27.8471 0.252555 28.6481 0 29.469 0H46.5818H423C425.209 0 427 1.79086 427 4V20V20C427 20.3808 426.814 20.7376 426.502 20.956L400.338 39.2766C399.665 39.7474 398.864 40 398.043 40H380.418H4C1.79086 40 0 38.2091 0 36V20ZM426.478 39.3968C426.213 39.5827 426.344 40 426.668 40V40C426.852 40 427 39.8515 427 39.6684V39.6684C427 39.4001 426.698 39.2429 426.478 39.3968V39.3968ZM0 0.454459C0 0.203468 0.203468 0 0.454459 0V0C0.898755 0 1.07907 0.571891 0.715125 0.826729V0.826729C0.413926 1.03763 0 0.822155 0 0.454459V0.454459Z"/>
</mask>
<path d="M426.502 20.956L427.076 21.7752L426.502 20.956ZM400.338 39.2766L399.764 38.4575L399.764 38.4575L400.338 39.2766ZM27.1747 0.723392L26.6011 -0.0957602L27.1747 0.723392ZM26.6011 -0.0957602L-0.369857 18.7895L0.777296 20.4278L27.7482 1.54254L26.6011 -0.0957602ZM46.5818 -1H29.469V1H46.5818V-1ZM423 -1H46.5818V1H423V-1ZM428 20V4H426V20H428ZM400.911 40.0958L427.076 21.7752L425.929 20.1369L399.764 38.4575L400.911 40.0958ZM380.418 41H398.043V39H380.418V41ZM4 41H380.418V39H4V41ZM-1 20V36H1V20H-1ZM0.141549 0.00757713C0.503115 -0.245594 1 0.0130681 1 0.454459H-1C-1 1.63124 0.324738 2.32086 1.2887 1.64588L0.141549 0.00757713ZM0.454459 -1C-0.348817 -1 -1 -0.348817 -1 0.454459H1C1 0.755753 0.755753 1 0.454459 1V-1ZM428 39.6684C428 38.591 426.787 37.9596 425.905 38.5776L427.052 40.2159C426.609 40.5261 426 40.2092 426 39.6684H428ZM426.668 39C427.322 39 427.587 39.8411 427.052 40.2159L425.905 38.5776C424.838 39.3243 425.367 41 426.668 41V39ZM4 39C2.34315 39 1 37.6569 1 36H-1C-1 38.7614 1.23858 41 4 41V39ZM426 20C426 20.0545 425.973 20.1056 425.929 20.1369L427.076 21.7752C427.655 21.3696 428 20.707 428 20H426ZM423 1C424.657 1 426 2.34315 426 4H428C428 1.23858 425.761 -1 423 -1V1ZM399.764 38.4575C399.26 38.8106 398.659 39 398.043 39V41C399.07 41 400.071 40.6843 400.911 40.0958L399.764 38.4575ZM0.454459 1C-0.0788847 1 -0.295341 0.313491 0.141549 0.00757713L1.2887 1.64588C2.45348 0.830291 1.8764 -1 0.454459 -1V1ZM27.7482 1.54254C28.2526 1.18942 28.8533 1 29.469 1V-1C28.4429 -1 27.4416 -0.684306 26.6011 -0.0957602L27.7482 1.54254ZM426.668 41C427.404 41 428 40.4038 428 39.6684H426C426 39.2992 426.299 39 426.668 39V41ZM1 20C1 20.1704 0.916877 20.3301 0.777296 20.4278L-0.369857 18.7895C-0.764801 19.066 -1 19.5179 -1 20H1Z" fill="#FEFEFE" mask="url(#path-1-inside-1_698_224)"/>
</svg>
