<svg width="100%" height="auto" viewBox="0 0 807 40" fill="none" xmlns="http://www.w3.org/2000/svg" preserveAspectRatio="none">
<mask id="path-1-inside-1_698_194" fill="white">
<path fill-rule="evenodd" clip-rule="evenodd" d="M0 20V20C0 19.8441 0.0760381 19.6981 0.20372 19.6087L27.1747 0.723392C27.8471 0.252555 28.6481 0 29.469 0H88.0364H803C805.209 0 807 1.79086 807 4V20V20C807 20.3808 806.814 20.7376 806.502 20.956L780.338 39.2766C779.665 39.7474 778.864 40 778.043 40H718.964H4C1.79086 40 0 38.2091 0 36V20ZM806.478 39.3967C806.213 39.5827 806.344 40 806.668 40V40C806.852 40 807 39.8515 807 39.6684V39.6684C807 39.4001 806.698 39.2429 806.478 39.3967V39.3967ZM0 0.454459C0 0.203468 0.203468 0 0.454459 0V0C0.898755 0 1.07907 0.571891 0.715125 0.826729V0.826729C0.413926 1.03763 0 0.822155 0 0.454459V0.454459Z"/>
</mask>
<path d="M806.502 20.956L807.076 21.7751L806.502 20.956ZM780.338 39.2766L780.911 40.0958L780.338 39.2766ZM27.1747 0.723392L26.6011 -0.0957602L27.1747 0.723392ZM26.6011 -0.0957602L-0.369857 18.7895L0.777296 20.4278L27.7482 1.54254L26.6011 -0.0957602ZM88.0364 -1H29.469V1H88.0364V-1ZM803 -1H88.0364V1H803V-1ZM808 20V4H806V20H808ZM780.911 40.0958L807.076 21.7751L805.929 20.1368L779.764 38.4575L780.911 40.0958ZM718.964 41H778.043V39H718.964V41ZM4 41H718.964V39H4V41ZM-1 20V36H1V20H-1ZM0.141549 0.00757713C0.503115 -0.245594 1 0.0130681 1 0.454459H-1C-1 1.63124 0.324738 2.32086 1.2887 1.64588L0.141549 0.00757713ZM0.454459 -1C-0.348817 -1 -1 -0.348817 -1 0.454459H1C1 0.755753 0.755753 1 0.454459 1V-1ZM808 39.6684C808 38.591 806.787 37.9596 805.905 38.5776L807.052 40.2159C806.609 40.5261 806 40.2092 806 39.6684H808ZM806.668 39C807.322 39 807.587 39.8411 807.052 40.2159L805.905 38.5776C804.838 39.3243 805.367 41 806.668 41V39ZM4 39C2.34315 39 1 37.6569 1 36H-1C-1 38.7614 1.23858 41 4 41V39ZM806 20C806 20.0545 805.973 20.1056 805.929 20.1368L807.076 21.7751C807.655 21.3696 808 20.707 808 20H806ZM803 1C804.657 1 806 2.34315 806 4H808C808 1.23858 805.761 -1 803 -1V1ZM779.764 38.4575C779.26 38.8106 778.659 39 778.043 39V41C779.07 41 780.071 40.6843 780.911 40.0958L779.764 38.4575ZM0.454459 1C-0.0788847 1 -0.295341 0.313491 0.141549 0.00757713L1.2887 1.64588C2.45348 0.830291 1.8764 -1 0.454459 -1V1ZM27.7482 1.54254C28.2526 1.18942 28.8533 1 29.469 1V-1C28.4429 -1 27.4416 -0.684306 26.6011 -0.0957602L27.7482 1.54254ZM806.668 41C807.404 41 808 40.4038 808 39.6684H806C806 39.2992 806.299 39 806.668 39V41ZM1 20C1 20.1704 0.916877 20.3301 0.777296 20.4278L-0.369857 18.7895C-0.764801 19.066 -1 19.5179 -1 20H1Z" fill="#FEFEFE" mask="url(#path-1-inside-1_698_194)"/>
</svg>
