<svg width="100%" height="auto" viewBox="0 0 802 40" fill="none" xmlns="http://www.w3.org/2000/svg" preserveAspectRatio="none">
<mask id="path-1-inside-1_690_93" fill="white">
<path fill-rule="evenodd" clip-rule="evenodd" d="M0.844727 20V20C0.844727 19.8476 0.929802 19.7079 1.06524 19.6379L38.2203 0.446102C38.7878 0.152966 39.4173 0 40.056 0H88.2435H798C800.209 0 802 1.79086 802 4V20V20C802 20.3728 801.792 20.7145 801.461 20.8856L765.319 39.5539C764.752 39.847 764.122 40 763.483 40H714.601H4.84473C2.63559 40 0.844727 38.2091 0.844727 36V20ZM801.465 39.3073C801.123 39.4837 801.249 40 801.633 40V40C801.836 40 802 39.8358 802 39.6332V39.6332C802 39.3584 801.709 39.1812 801.465 39.3073V39.3073ZM0.844727 0.502624C0.844727 0.225033 1.06976 0 1.34735 0V0C1.87416 0 2.04608 0.707426 1.57802 0.949193V0.949193C1.24348 1.12199 0.844727 0.879156 0.844727 0.502624V0.502624Z"/>
</mask>
<path d="M801.461 20.8856L801.002 19.9972L801.461 20.8856ZM765.319 39.5539L765.778 40.4424L765.319 39.5539ZM1.06524 19.6379L0.606319 18.7494L1.06524 19.6379ZM37.7614 -0.442373L0.606319 18.7494L1.52417 20.5264L38.6792 1.33458L37.7614 -0.442373ZM88.2435 -1H40.056V1H88.2435V-1ZM798 -1H88.2435V1H798V-1ZM803 20V4H801V20H803ZM765.778 40.4424L801.92 21.7741L801.002 19.9972L764.86 38.6654L765.778 40.4424ZM714.601 41H763.483V39H714.601V41ZM4.84473 41H714.601V39H4.84473V41ZM-0.155273 20V36H1.84473V20H-0.155273ZM1.11909 0.0607183C1.45014 -0.110278 1.84473 0.130023 1.84473 0.502624H-0.155273C-0.155273 1.62829 1.03682 2.35426 2.03694 1.83767L1.11909 0.0607183ZM1.34735 -1C0.517475 -1 -0.155273 -0.327252 -0.155273 0.502624H1.84473C1.84473 0.777317 1.62204 1 1.34735 1V-1ZM803 39.6332C803 38.6093 801.916 37.9489 801.006 38.4188L801.924 40.1958C801.502 40.4135 801 40.1076 801 39.6332H803ZM801.633 39C802.297 39 802.513 39.8912 801.924 40.1958L801.006 38.4188C799.733 39.0763 800.201 41 801.633 41V39ZM4.84473 39C3.18787 39 1.84473 37.6569 1.84473 36H-0.155273C-0.155273 38.7614 2.0833 41 4.84473 41V39ZM801 20C801 20 801 19.9996 801 19.9991C801 19.9987 801 19.9984 801 19.9983C801.001 19.9982 801.001 19.998 801.001 19.9977C801.001 19.9974 801.002 19.9972 801.002 19.9972L801.92 21.7741C802.583 21.4313 803 20.7469 803 20H801ZM798 1C799.657 1 801 2.34315 801 4H803C803 1.23858 800.761 -1 798 -1V1ZM764.86 38.6654C764.435 38.8853 763.963 39 763.483 39V41C764.282 41 765.069 40.8088 765.778 40.4424L764.86 38.6654ZM1.34735 1C0.826041 1 0.655921 0.299961 1.11909 0.0607183L2.03694 1.83767C3.43623 1.11489 2.92228 -1 1.34735 -1V1ZM38.6792 1.33458C39.1049 1.11473 39.577 1 40.056 1V-1C39.2576 -1 38.4708 -0.808792 37.7614 -0.442373L38.6792 1.33458ZM801.633 41C802.388 41 803 40.3881 803 39.6332H801C801 39.2835 801.283 39 801.633 39V41ZM1.84473 20C1.84473 20.2216 1.72106 20.4247 1.52417 20.5264L0.606319 18.7494C0.138546 18.991 -0.155273 19.4735 -0.155273 20H1.84473Z" fill="#FEFEFE" mask="url(#path-1-inside-1_690_93)"/>
</svg>
