<svg width="100%" height="auto" viewBox="0 0 390 280" fill="none" xmlns="http://www.w3.org/2000/svg" preserveAspectRatio="none">
<mask id="path-1-inside-1_4229_86" fill="white">
<path fill-rule="evenodd" clip-rule="evenodd" d="M8 280C3.58172 280 0 276.418 0 272V28.5901C0 25.9799 1.27331 23.5339 3.41139 22.0368L32.817 1.44678C34.1619 0.50511 35.7639 0 37.4057 0H382C386.418 0 390 3.58173 390 8.00001V250.582C390 253.192 388.727 255.638 386.589 257.135L356.001 278.553C354.656 279.495 353.054 280 351.412 280H8ZM389.549 279.478C389.319 279.639 389.433 280 389.713 280C389.872 280 390 279.872 390 279.713C390 279.481 389.739 279.345 389.549 279.478ZM0 0.003435C0 0.0015379 0.0015379 0 0.003435 0C0.0067932 0 0.00815611 0.00432261 0.00540524 0.00624879C0.00312864 0.00784288 0 0.00621421 0 0.003435Z"/>
</mask>
<path d="M356.001 278.553L355.427 277.734L356.001 278.553ZM386.589 257.135L386.015 256.316L386.589 257.135ZM32.817 1.44678L32.2435 0.627632L32.817 1.44678ZM3.41139 22.0368L2.83781 21.2177L3.41139 22.0368ZM-1 28.5901V272H1V28.5901H-1ZM32.2435 0.627632L2.83781 21.2177L3.98497 22.856L33.3906 2.26594L32.2435 0.627632ZM382 -1H37.4057V1H382V-1ZM391 250.582V8.00001H389V250.582H391ZM356.574 279.372L387.162 257.954L386.015 256.316L355.427 277.734L356.574 279.372ZM8 281H351.412V279H8V281ZM-0.568171 -0.812903C0.0923174 -1.27538 1 -0.802872 1 0.003435H-1C-1 0.8153 -0.0860601 1.29107 0.578982 0.825401L-0.568171 -0.812903ZM0.003435 -1C-0.550747 -1 -1 -0.550747 -1 0.003435H1C1 0.553822 0.553823 1 0.003435 1V-1ZM0.003435 1C-0.970847 1 -1.36626 -0.254078 -0.568171 -0.812903L0.578982 0.825401C1.38257 0.262723 0.984433 -1 0.003435 -1V1ZM391 279.713C391 278.672 389.828 278.062 388.975 278.659L390.122 280.297C389.65 280.628 389 280.29 389 279.713H391ZM389.713 281C390.424 281 391 280.424 391 279.713H389C389 279.319 389.319 279 389.713 279V281ZM389.713 279C390.41 279 390.693 279.897 390.122 280.297L388.975 278.659C387.944 279.381 388.455 281 389.713 281V279ZM355.427 277.734C354.25 278.558 352.849 279 351.412 279V281C353.259 281 355.061 280.432 356.574 279.372L355.427 277.734ZM389 250.582C389 252.866 387.886 255.006 386.015 256.316L387.162 257.954C389.568 256.27 391 253.518 391 250.582H389ZM382 1C385.866 1 389 4.13401 389 8.00001H391C391 3.02945 386.971 -1 382 -1V1ZM33.3906 2.26594C34.5674 1.44197 35.9691 1 37.4057 1V-1C35.5587 -1 33.7564 -0.431752 32.2435 0.627632L33.3906 2.26594ZM-1 272C-1 276.971 3.02944 281 8 281V279C4.134 279 1 275.866 1 272H-1ZM1 28.5901C1 26.3062 2.11414 24.166 3.98497 22.856L2.83781 21.2177C0.432469 22.9019 -1 25.6537 -1 28.5901H1Z" fill="#34D3D7" mask="url(#path-1-inside-1_4229_86)"/>
</svg>
