<svg width="100%" height="auto" viewBox="0 0 550 76" fill="none" xmlns="http://www.w3.org/2000/svg" preserveAspectRatio="none">
<mask id="path-1-inside-1_4229_53" fill="white">
<path fill-rule="evenodd" clip-rule="evenodd" d="M8 76C3.58172 76 0 72.4183 0 68V28.5901C0 25.9799 1.27331 23.5339 3.41139 22.0368L32.817 1.44678C34.1619 0.50511 35.7639 0 37.4057 0H542C546.418 0 550 3.58172 550 8V46.2822C550 48.8924 548.727 51.3384 546.589 52.8355L515.572 74.5532C514.228 75.4949 512.626 76 510.984 76H8ZM549.387 75.2914C549.075 75.5098 549.23 76 549.61 76C549.826 76 550 75.8256 550 75.6105C550 75.2953 549.645 75.1107 549.387 75.2914ZM0 0.003435C0 0.0015379 0.0015379 0 0.003435 0C0.0067932 0 0.00815611 0.00432261 0.00540524 0.00624879C0.00312864 0.00784288 0 0.00621421 0 0.003435Z"/>
</mask>
<path d="M515.572 74.5532L516.146 75.3724L515.572 74.5532ZM32.817 1.44678L32.2435 0.627632L32.817 1.44678ZM3.41139 22.0368L2.83781 21.2177L3.41139 22.0368ZM-1 28.5901V68H1V28.5901H-1ZM32.2435 0.627632L2.83781 21.2177L3.98497 22.856L33.3906 2.26594L32.2435 0.627632ZM542 -1H37.4057V1H542V-1ZM551 46.2822V8H549V46.2822H551ZM516.146 75.3724L547.162 53.6546L546.015 52.0163L514.999 73.7341L516.146 75.3724ZM8 77H510.984V75H8V77ZM-0.568171 -0.812903C0.0923174 -1.27538 1 -0.802872 1 0.003435H-1C-1 0.8153 -0.0860601 1.29107 0.578982 0.825401L-0.568171 -0.812903ZM0.003435 -1C-0.550747 -1 -1 -0.550747 -1 0.003435H1C1 0.553822 0.553823 1 0.003435 1V-1ZM0.003435 1C-0.970847 1 -1.36626 -0.254078 -0.568171 -0.812903L0.578982 0.825401C1.38257 0.262723 0.984433 -1 0.003435 -1V1ZM551 75.6105C551 74.4863 549.734 73.8274 548.814 74.4723L549.961 76.1106C549.556 76.3939 549 76.1044 549 75.6105H551ZM549.61 77C550.378 77 551 76.3779 551 75.6105H549C549 75.2733 549.273 75 549.61 75V77ZM549.61 75C550.207 75 550.45 75.7682 549.961 76.1106L548.814 74.4723C547.701 75.2514 548.252 77 549.61 77V75ZM514.999 73.7341C513.822 74.558 512.42 75 510.984 75V77C512.831 77 514.633 76.4317 516.146 75.3724L514.999 73.7341ZM549 46.2822C549 48.5661 547.886 50.7063 546.015 52.0163L547.162 53.6546C549.568 51.9704 551 49.2186 551 46.2822H549ZM542 1C545.866 1 549 4.13401 549 8H551C551 3.02944 546.971 -1 542 -1V1ZM33.3906 2.26594C34.5674 1.44197 35.9691 1 37.4057 1V-1C35.5587 -1 33.7564 -0.431752 32.2435 0.627632L33.3906 2.26594ZM-1 68C-1 72.9706 3.02944 77 8 77V75C4.13401 75 1 71.866 1 68H-1ZM1 28.5901C1 26.3062 2.11414 24.166 3.98497 22.856L2.83781 21.2177C0.432469 22.9019 -1 25.6537 -1 28.5901H1Z" fill="#404040" mask="url(#path-1-inside-1_4229_53)"/>
</svg>
