<svg width="100%" height="auto" viewBox="0 0 550 270" fill="none" xmlns="http://www.w3.org/2000/svg" preserveAspectRatio="none">
<mask id="path-1-inside-1_4229_82" fill="white">
<path fill-rule="evenodd" clip-rule="evenodd" d="M8 270C3.58172 270 0 266.418 0 262V28.5901C0 25.9799 1.27331 23.5339 3.41139 22.0368L32.817 1.44678C34.1619 0.50511 35.7639 0 37.4057 0H542C546.418 0 550 3.58172 550 8V240.282C550 242.892 548.727 245.338 546.589 246.836L515.573 268.553C514.228 269.495 512.626 270 510.984 270H8ZM549.387 269.291C549.075 269.51 549.23 270 549.611 270C549.826 270 550 269.826 550 269.611C550 269.295 549.645 269.111 549.387 269.291ZM0 0.003435C0 0.0015379 0.0015379 0 0.003435 0C0.0067932 0 0.00815611 0.00432261 0.00540524 0.00624879C0.00312864 0.00784288 0 0.00621421 0 0.003435Z"/>
</mask>
<path d="M515.573 268.553L516.146 269.372L515.573 268.553ZM546.589 246.836L547.162 247.655L546.589 246.836ZM32.817 1.44678L32.2435 0.627632L32.817 1.44678ZM3.41139 22.0368L2.83781 21.2177L3.41139 22.0368ZM-1 28.5901V262H1V28.5901H-1ZM32.2435 0.627632L2.83781 21.2177L3.98497 22.856L33.3906 2.26594L32.2435 0.627632ZM542 -1H37.4057V1H542V-1ZM551 240.282V8H549V240.282H551ZM516.146 269.372L547.162 247.655L546.015 246.016L514.999 267.734L516.146 269.372ZM8 271H510.984V269H8V271ZM-0.568171 -0.812903C0.0923174 -1.27538 1 -0.802872 1 0.003435H-1C-1 0.8153 -0.0860601 1.29107 0.578982 0.825401L-0.568171 -0.812903ZM0.003435 -1C-0.550747 -1 -1 -0.550747 -1 0.003435H1C1 0.553822 0.553823 1 0.003435 1V-1ZM0.003435 1C-0.970847 1 -1.36626 -0.254078 -0.568171 -0.812903L0.578982 0.825401C1.38257 0.262723 0.984433 -1 0.003435 -1V1ZM551 269.611C551 268.486 549.734 267.828 548.814 268.472L549.961 270.111C549.556 270.394 549 270.104 549 269.611H551ZM549.611 271C550.378 271 551 270.378 551 269.611H549C549 269.273 549.273 269 549.611 269V271ZM549.611 269C550.207 269 550.45 269.768 549.961 270.111L548.814 268.472C547.701 269.251 548.252 271 549.611 271V269ZM514.999 267.734C513.822 268.558 512.42 269 510.984 269V271C512.831 271 514.633 270.432 516.146 269.372L514.999 267.734ZM549 240.282C549 242.566 547.886 244.706 546.015 246.016L547.162 247.655C549.568 245.97 551 243.219 551 240.282H549ZM542 1C545.866 1 549 4.13401 549 8H551C551 3.02943 546.971 -1 542 -1V1ZM33.3906 2.26594C34.5674 1.44197 35.9691 1 37.4057 1V-1C35.5587 -1 33.7564 -0.431752 32.2435 0.627632L33.3906 2.26594ZM-1 262C-1 266.971 3.02944 271 8 271V269C4.134 269 1 265.866 1 262H-1ZM1 28.5901C1 26.3062 2.11414 24.166 3.98497 22.856L2.83781 21.2177C0.432469 22.9019 -1 25.6537 -1 28.5901H1Z" fill="#34D3D7" mask="url(#path-1-inside-1_4229_82)"/>
</svg>
