<svg width="100%" height="auto" viewBox="0 0 390 105" fill="none" xmlns="http://www.w3.org/2000/svg" preserveAspectRatio="none">
<mask id="path-1-inside-1_4229_57" fill="white">
<path fill-rule="evenodd" clip-rule="evenodd" d="M8 105C3.58172 105 0 101.418 0 97V28.5901C0 25.9799 1.27331 23.5339 3.41139 22.0368L32.817 1.44678C34.1619 0.50511 35.7639 0 37.4057 0H382C386.418 0 390 3.58173 390 8V76.5821C390 79.1922 388.727 81.6382 386.589 83.1353L357.429 103.553C356.084 104.495 354.482 105 352.84 105H8ZM0 0.003435C0 0.0015379 0.0015379 0 0.003435 0C0.0067932 0 0.00815611 0.00432261 0.00540524 0.00624879C0.00312864 0.00784288 0 0.00621421 0 0.003435Z"/>
</mask>
<path d="M357.429 103.553L358.002 104.372L357.429 103.553ZM386.589 83.1353L387.162 83.9545L386.589 83.1353ZM32.817 1.44678L32.2435 0.627632L32.817 1.44678ZM3.41139 22.0368L2.83781 21.2177L3.41139 22.0368ZM-1 28.5901V97H1V28.5901H-1ZM32.2435 0.627632L2.83781 21.2177L3.98497 22.856L33.3906 2.26594L32.2435 0.627632ZM382 -1H37.4057V1H382V-1ZM391 76.5821V8H389V76.5821H391ZM358.002 104.372L387.162 83.9545L386.015 82.3162L356.855 102.734L358.002 104.372ZM8 106H352.84V104H8V106ZM-0.568171 -0.812903C0.0923174 -1.27538 1 -0.802872 1 0.003435H-1C-1 0.8153 -0.0860601 1.29107 0.578982 0.825401L-0.568171 -0.812903ZM0.003435 -1C-0.550747 -1 -1 -0.550747 -1 0.003435H1C1 0.553822 0.553823 1 0.003435 1V-1ZM0.003435 1C-0.970847 1 -1.36626 -0.254078 -0.568171 -0.812903L0.578982 0.825401C1.38257 0.262723 0.984433 -1 0.003435 -1V1ZM356.855 102.734C355.678 103.558 354.277 104 352.84 104V106C354.687 106 356.489 105.432 358.002 104.372L356.855 102.734ZM389 76.5821C389 78.866 387.886 81.0062 386.015 82.3162L387.162 83.9545C389.568 82.2702 391 79.5185 391 76.5821H389ZM382 1C385.866 1 389 4.13401 389 8H391C391 3.02944 386.971 -1 382 -1V1ZM33.3906 2.26594C34.5674 1.44197 35.9691 1 37.4057 1V-1C35.5587 -1 33.7564 -0.431752 32.2435 0.627632L33.3906 2.26594ZM-1 97C-1 101.971 3.02944 106 8 106V104C4.13401 104 1 100.866 1 97H-1ZM1 28.5901C1 26.3062 2.11414 24.166 3.98497 22.856L2.83781 21.2177C0.432469 22.9019 -1 25.6537 -1 28.5901H1Z" fill="#404040" mask="url(#path-1-inside-1_4229_57)"/>
</svg>
