<svg width="100%" height="auto" viewBox="0 0 536 76" fill="none" xmlns="http://www.w3.org/2000/svg" preserveAspectRatio="none">
<mask id="path-1-inside-1_690_116" fill="white">
<path fill-rule="evenodd" clip-rule="evenodd" d="M8 76C3.58172 76 0 72.4183 0 68V28.5901C0 25.9799 1.27331 23.5339 3.41139 22.0368L32.817 1.44678C34.1619 0.50511 35.7639 0 37.4057 0H528C532.418 0 536 3.58173 536 8V46.9825C536 49.5926 534.727 52.0386 532.589 53.5357L502.572 74.5532C501.228 75.4949 499.626 76 497.984 76H8ZM535.764 75.7275C535.644 75.8115 535.704 76 535.85 76V76C535.933 76 536 75.9329 536 75.8502V75.8502C536 75.729 535.864 75.658 535.764 75.7275V75.7275ZM0 0.003435C0 0.0015379 0.0015379 0 0.003435 0V0C0.0067932 0 0.00815611 0.00432261 0.00540524 0.00624879V0.00624879C0.00312864 0.00784288 0 0.00621421 0 0.003435V0.003435Z"/>
</mask>
<path d="M502.572 74.5532L503.146 75.3724L502.572 74.5532ZM532.589 53.5357L532.015 52.7165L532.589 53.5357ZM32.817 1.44678L32.2435 0.627632L32.817 1.44678ZM3.41139 22.0368L2.83781 21.2177L3.41139 22.0368ZM-1 28.5901V68H1V28.5901H-1ZM32.2435 0.627632L2.83781 21.2177L3.98497 22.856L33.3906 2.26594L32.2435 0.627632ZM528 -1H37.4057V1H528V-1ZM537 46.9825V8H535V46.9825H537ZM503.146 75.3724L533.162 54.3548L532.015 52.7165L501.999 73.7341L503.146 75.3724ZM8 77H497.984V75H8V77ZM-0.568171 -0.812903C0.0923173 -1.27538 1 -0.802872 1 0.003435H-1C-1 0.8153 -0.0860601 1.29107 0.578982 0.825401L-0.568171 -0.812903ZM0.003435 -1C-0.550747 -1 -1 -0.550746 -1 0.003435H1C1 0.553822 0.553823 1 0.003435 1V-1ZM0.003435 1C-0.970847 1 -1.36626 -0.254078 -0.568171 -0.812903L0.578982 0.825401C1.38257 0.262723 0.984433 -1 0.003435 -1V1ZM537 75.8502C537 74.9199 535.953 74.3748 535.191 74.9083L536.338 76.5467C535.774 76.9412 535 76.5381 535 75.8502H537ZM535.85 77C536.485 77 537 76.4852 537 75.8502H535C535 75.3807 535.381 75 535.85 75V77ZM535.85 75C536.681 75 537.019 76.0699 536.338 76.5467L535.191 74.9083C534.27 75.5531 534.726 77 535.85 77V75ZM501.999 73.7341C500.822 74.558 499.42 75 497.984 75V77C499.831 77 501.633 76.4318 503.146 75.3724L501.999 73.7341ZM535 46.9825C535 49.2663 533.886 51.4065 532.015 52.7165L533.162 54.3548C535.568 52.6706 537 49.9188 537 46.9825H535ZM528 1C531.866 1 535 4.13401 535 8H537C537 3.02944 532.971 -1 528 -1V1ZM33.3906 2.26594C34.5674 1.44197 35.9691 1 37.4057 1V-1C35.5587 -1 33.7564 -0.431751 32.2435 0.627632L33.3906 2.26594ZM-1 68C-1 72.9706 3.02944 77 8 77V75C4.13401 75 1 71.866 1 68H-1ZM1 28.5901C1 26.3062 2.11414 24.166 3.98497 22.856L2.83781 21.2177C0.432469 22.9019 -1 25.6537 -1 28.5901H1Z" fill="#404040" mask="url(#path-1-inside-1_690_116)"/>
</svg>
