<svg width="100%" height="auto" viewBox="0 0 536 270" fill="none" xmlns="http://www.w3.org/2000/svg" preserveAspectRatio="none">
<mask id="path-1-inside-1_690_121" fill="white">
<path fill-rule="evenodd" clip-rule="evenodd" d="M8 270C3.58172 270 0 266.418 0 262V28.5901C0 25.9799 1.27331 23.5339 3.41139 22.0368L32.817 1.44678C34.1619 0.50511 35.7639 0 37.4057 0H528C532.418 0 536 3.58172 536 8V240.683C536 243.293 534.727 245.739 532.589 247.236L502.144 268.553C500.8 269.495 499.198 270 497.556 270H8ZM535.603 269.541C535.401 269.682 535.501 270 535.748 270V270C535.887 270 536 269.887 536 269.748V269.748C536 269.543 535.77 269.424 535.603 269.541V269.541ZM0 0.003435C0 0.0015379 0.0015379 0 0.003435 0V0C0.0067932 0 0.00815611 0.00432261 0.00540524 0.00624879V0.00624879C0.00312864 0.00784288 0 0.00621421 0 0.003435V0.003435Z"/>
</mask>
<path d="M502.144 268.553L502.718 269.372L502.144 268.553ZM532.589 247.236L532.015 246.417L532.589 247.236ZM32.817 1.44678L32.2435 0.627632L32.817 1.44678ZM3.41139 22.0368L2.83781 21.2177L3.41139 22.0368ZM-1 28.5901V262H1V28.5901H-1ZM32.2435 0.627632L2.83781 21.2177L3.98497 22.856L33.3906 2.26594L32.2435 0.627632ZM528 -1H37.4057V1H528V-1ZM537 240.683V8H535V240.683H537ZM502.718 269.372L533.162 248.055L532.015 246.417L501.571 267.734L502.718 269.372ZM8 271H497.556V269H8V271ZM-0.568171 -0.812903C0.0923173 -1.27538 1 -0.802872 1 0.003435H-1C-1 0.8153 -0.0860601 1.29107 0.578982 0.825401L-0.568171 -0.812903ZM0.003435 -1C-0.550747 -1 -1 -0.550746 -1 0.003435H1C1 0.553822 0.553823 1 0.003435 1V-1ZM0.003435 1C-0.970847 1 -1.36626 -0.254078 -0.568171 -0.812903L0.578982 0.825401C1.38257 0.262723 0.984433 -1 0.003435 -1V1ZM537 269.748C537 268.734 535.859 268.14 535.029 268.722L536.176 270.36C535.681 270.707 535 270.352 535 269.748H537ZM535.748 271C536.439 271 537 270.439 537 269.748H535C535 269.335 535.335 269 535.748 269V271ZM535.748 269C536.478 269 536.775 269.941 536.176 270.36L535.029 268.722C534.026 269.424 534.523 271 535.748 271V269ZM501.571 267.734C500.394 268.558 498.992 269 497.556 269V271C499.403 271 501.205 270.432 502.718 269.372L501.571 267.734ZM535 240.683C535 242.967 533.886 245.107 532.015 246.417L533.162 248.055C535.568 246.371 537 243.619 537 240.683H535ZM528 1C531.866 1 535 4.134 535 8H537C537 3.02943 532.971 -1 528 -1V1ZM33.3906 2.26594C34.5674 1.44197 35.9691 1 37.4057 1V-1C35.5587 -1 33.7564 -0.431751 32.2435 0.627632L33.3906 2.26594ZM-1 262C-1 266.971 3.02944 271 8 271V269C4.134 269 1 265.866 1 262H-1ZM1 28.5901C1 26.3062 2.11414 24.166 3.98497 22.856L2.83781 21.2177C0.432469 22.9019 -1 25.6537 -1 28.5901H1Z" fill="#34D3D7" mask="url(#path-1-inside-1_690_121)"/>
</svg>
