<svg width="100%" height="auto" viewBox="0 0 320 40" fill="none" xmlns="http://www.w3.org/2000/svg" preserveAspectRatio="none">
<mask id="path-1-inside-1_673_1930" fill="white">
<path fill-rule="evenodd" clip-rule="evenodd" d="M0 20C0 18.8605 0.555866 17.7927 1.48926 17.1392L24.9334 0.723392C25.6058 0.252555 26.4068 0 27.2277 0H34.9091H316C318.209 0 320 1.79086 320 4V20C320 21.2061 319.412 22.3363 318.424 23.0281L295.218 39.2766C294.546 39.7474 293.745 40 292.924 40H285.091H4.00001C1.79087 40 0 38.2091 0 36V20Z"/>
</mask>
<path d="M295.218 39.2766L295.792 40.0958L295.218 39.2766ZM318.424 23.0281L317.85 22.2089L318.424 23.0281ZM24.9334 0.723392L24.3598 -0.0957602L24.9334 0.723392ZM24.3598 -0.0957602L0.915679 16.32L2.06283 17.9583L25.507 1.54254L24.3598 -0.0957602ZM34.9091 -1H27.2277V1H34.9091V-1ZM316 -1H34.9091V1H316V-1ZM321 4C321 1.23856 318.761 -1 316 -1V1C317.657 1 319 2.34315 319 4H321ZM321 20V4H319V20H321ZM295.792 40.0958L318.997 23.8472L317.85 22.2089L294.645 38.4575L295.792 40.0958ZM285.091 41H292.924V39H285.091V41ZM4.00001 41H285.091V39H4.00001V41ZM-1 36C-1 38.7614 1.23859 41 4.00001 41V39C2.34315 39 1 37.6569 1 36H-1ZM-1 20V36H1V20H-1ZM294.645 38.4575C294.141 38.8106 293.54 39 292.924 39V41C293.95 41 294.951 40.6843 295.792 40.0958L294.645 38.4575ZM319 20C319 20.8798 318.571 21.7043 317.85 22.2089L318.997 23.8472C320.252 22.9683 321 21.5323 321 20H319ZM25.507 1.54254C26.0113 1.18942 26.6121 1 27.2277 1V-1C26.2016 -1 25.2004 -0.684306 24.3598 -0.0957602L25.507 1.54254ZM1 20C1 19.1868 1.3967 18.4247 2.06283 17.9583L0.915679 16.32C-0.284971 17.1607 -1 18.5343 -1 20H1Z" fill="white" mask="url(#path-1-inside-1_673_1930)"/>
</svg>
