<svg xmlns="http://www.w3.org/2000/svg" width="100%" height="auto" viewBox="0 0 432 40" fill="none" preserveAspectRatio="none">
  <mask id="path-1-inside-1_2719_2246" fill="white">
    <path fill-rule="evenodd" clip-rule="evenodd" d="M0 20C0 18.9664 0.504216 17.9978 1.35087 17.405L25.1747 0.723392C25.8471 0.252555 26.6481 0 27.469 0H47.1273H428C430.209 0 432 1.79086 432 4V20C432 21.2584 431.386 22.4377 430.355 23.1595L407.338 39.2766C406.665 39.7474 405.864 40 405.043 40H384.873H4C1.79086 40 0 38.2091 0 36V20Z"/>
  </mask>
  <path d="M430.355 23.1595L430.929 23.9787L430.355 23.1595ZM407.338 39.2766L407.911 40.0958L407.338 39.2766ZM1.35087 17.405L0.777296 16.5858L1.35087 17.405ZM24.6011 -0.0957601L0.777296 16.5858L1.92445 18.2241L25.7482 1.54254L24.6011 -0.0957601ZM47.1273 -1H27.469V1H47.1273V-1ZM428 -1H47.1273V1H428V-1ZM433 20V4H431V20H433ZM407.911 40.0958L430.929 23.9787L429.782 22.3404L406.764 38.4575L407.911 40.0958ZM384.873 41H405.043V39H384.873V41ZM4 41H384.873V39H4V41ZM-1 20V36H1V20H-1ZM4 39C2.34315 39 1 37.6569 1 36H-1C-1 38.7614 1.23858 41 4 41V39ZM431 20C431 20.9322 430.545 21.8057 429.782 22.3404L430.929 23.9787C432.227 23.0698 433 21.5847 433 20H431ZM428 1C429.657 1 431 2.34315 431 4H433C433 1.23858 430.761 -1 428 -1V1ZM406.764 38.4575C406.26 38.8106 405.659 39 405.043 39V41C406.069 41 407.071 40.6843 407.911 40.0958L406.764 38.4575ZM25.7482 1.54254C26.2526 1.18942 26.8533 1 27.469 1V-1C26.4429 -1 25.4416 -0.684306 24.6011 -0.0957601L25.7482 1.54254ZM1 20C1 19.2927 1.34505 18.6298 1.92445 18.2241L0.777296 16.5858C-0.33662 17.3658 -1 18.6402 -1 20H1Z" fill="#FEFEFE" mask="url(#path-1-inside-1_2719_2246)"/>
</svg>