<svg xmlns="http://www.w3.org/2000/svg" width="100%" height="auto" viewBox="0 0 920 76" fill="none" preserveAspectRatio="none">
              <mask id="path-1-inside-1_2725_7658" fill="white">
                <path fill-rule="evenodd" clip-rule="evenodd" d="M8 76C3.58172 76 0 72.4183 0 68V28.5901C0 25.9799 1.27331 23.5339 3.41139 22.0368L32.817 1.44678C34.1619 0.50511 35.7639 0 37.4057 0H912C916.418 0 920 3.58173 920 8.00001V48.0831C920 50.6932 918.727 53.1392 916.589 54.6363L888.144 74.5532C886.799 75.4949 885.197 76 883.556 76H8ZM0 0.003435C0 0.0015379 0.0015379 0 0.003435 0C0.0067932 0 0.00815611 0.00432261 0.00540524 0.00624879C0.00312864 0.00784288 0 0.00621421 0 0.003435Z" />
              </mask>
              <path d="M888.144 74.5532L887.571 73.7341L888.144 74.5532ZM916.589 54.6363L916.015 53.8171L916.589 54.6363ZM32.817 1.44678L32.2435 0.627632L32.817 1.44678ZM3.41139 22.0368L2.83781 21.2177L3.41139 22.0368ZM-1 28.5901V68H1V28.5901H-1ZM32.2435 0.627632L2.83781 21.2177L3.98497 22.856L33.3906 2.26594L32.2435 0.627632ZM912 -1H37.4057V1H912V-1ZM921 48.0831V8.00001H919V48.0831H921ZM888.718 75.3724L917.162 55.4554L916.015 53.8171L887.571 73.7341L888.718 75.3724ZM8 77H883.556V75H8V77ZM-0.568171 -0.812903C0.0923174 -1.27538 1 -0.802872 1 0.003435H-1C-1 0.8153 -0.0860601 1.29107 0.578982 0.825401L-0.568171 -0.812903ZM0.003435 -1C-0.550747 -1 -1 -0.550747 -1 0.003435H1C1 0.553822 0.553823 1 0.003435 1V-1ZM0.003435 1C-0.970847 1 -1.36626 -0.254078 -0.568171 -0.812903L0.578982 0.825401C1.38257 0.262723 0.984433 -1 0.003435 -1V1ZM887.571 73.7341C886.394 74.558 884.992 75 883.556 75V77C885.403 77 887.205 76.4318 888.718 75.3724L887.571 73.7341ZM919 48.0831C919 50.3669 917.886 52.5072 916.015 53.8171L917.162 55.4554C919.568 53.7712 921 51.0195 921 48.0831H919ZM912 1C915.866 1 919 4.13401 919 8.00001H921C921 3.02944 916.971 -1 912 -1V1ZM33.3906 2.26594C34.5674 1.44197 35.9691 1 37.4057 1V-1C35.5587 -1 33.7564 -0.431753 32.2435 0.627632L33.3906 2.26594ZM-1 68C-1 72.9706 3.02944 77 8 77V75C4.13401 75 1 71.866 1 68H-1ZM1 28.5901C1 26.3062 2.11414 24.166 3.98497 22.856L2.83781 21.2177C0.432469 22.9019 -1 25.6537 -1 28.5901H1Z" fill="#404040" mask="url(#path-1-inside-1_2725_7658)" />
            </svg>