<svg width="100%" height="auto"  viewBox="0 0 680 76" fill="none" xmlns="http://www.w3.org/2000/svg" preserveAspectRatio="none">
<mask id="path-1-inside-1_2719_4474" fill="white">
<path fill-rule="evenodd" clip-rule="evenodd" d="M8 76C3.58172 76 0 72.4183 0 68V28.5901C0 25.9799 1.27331 23.5339 3.41139 22.0368L32.817 1.44678C34.1619 0.50511 35.7639 0 37.4057 0H672C676.418 0 680 3.58173 680 8V46.9825C680 49.5926 678.727 52.0386 676.589 53.5357L646.572 74.5532C645.228 75.4949 643.626 76 641.984 76H8ZM679.764 75.7275C679.644 75.8115 679.704 76 679.85 76C679.933 76 680 75.9329 680 75.8502C680 75.729 679.864 75.658 679.764 75.7275ZM0 0.003435C0 0.0015379 0.0015379 0 0.003435 0C0.0067932 0 0.00815611 0.00432261 0.00540524 0.00624879C0.00312864 0.00784288 0 0.00621421 0 0.003435Z"/>
</mask>
<path d="M646.572 74.5532L647.146 75.3724L646.572 74.5532ZM676.589 53.5357L676.015 52.7165L676.589 53.5357ZM32.817 1.44678L32.2435 0.627632L32.817 1.44678ZM3.41139 22.0368L2.83781 21.2177L3.41139 22.0368ZM-1 28.5901V68H1V28.5901H-1ZM32.2435 0.627632L2.83781 21.2177L3.98497 22.856L33.3906 2.26594L32.2435 0.627632ZM672 -1H37.4057V1H672V-1ZM681 46.9825V8H679V46.9825H681ZM647.146 75.3724L677.162 54.3548L676.015 52.7165L645.999 73.7341L647.146 75.3724ZM8 77H641.984V75H8V77ZM-0.568171 -0.812903C0.0923174 -1.27538 1 -0.802872 1 0.003435H-1C-1 0.8153 -0.0860601 1.29107 0.578982 0.825401L-0.568171 -0.812903ZM0.003435 -1C-0.550747 -1 -1 -0.550747 -1 0.003435H1C1 0.553822 0.553823 1 0.003435 1V-1ZM0.003435 1C-0.970847 1 -1.36626 -0.254078 -0.568171 -0.812903L0.578982 0.825401C1.38257 0.262723 0.984433 -1 0.003435 -1V1ZM681 75.8502C681 74.9199 679.953 74.3748 679.191 74.9083L680.338 76.5467C679.774 76.9412 679 76.5381 679 75.8502H681ZM679.85 77C680.485 77 681 76.4852 681 75.8502H679C679 75.3807 679.381 75 679.85 75V77ZM679.85 75C680.681 75 681.019 76.0699 680.338 76.5467L679.191 74.9083C678.27 75.5531 678.726 77 679.85 77V75ZM645.999 73.7341C644.822 74.558 643.42 75 641.984 75V77C643.831 77 645.633 76.4318 647.146 75.3724L645.999 73.7341ZM679 46.9825C679 49.2663 677.886 51.4065 676.015 52.7165L677.162 54.3548C679.568 52.6706 681 49.9188 681 46.9825H679ZM672 1C675.866 1 679 4.13401 679 8H681C681 3.02944 676.971 -1 672 -1V1ZM33.3906 2.26594C34.5674 1.44197 35.9691 1 37.4057 1V-1C35.5587 -1 33.7564 -0.431752 32.2435 0.627632L33.3906 2.26594ZM-1 68C-1 72.9706 3.02944 77 8 77V75C4.13401 75 1 71.866 1 68H-1ZM1 28.5901C1 26.3062 2.11414 24.166 3.98497 22.856L2.83781 21.2177C0.432469 22.9019 -1 25.6537 -1 28.5901H1Z" fill="#404040" mask="url(#path-1-inside-1_2719_4474)"/>
</svg>
