<svg xmlns="http://www.w3.org/2000/svg" width="100%" height="auto" viewBox="0 0 680 259" fill="none" preserveAspectRatio="none">
  <mask id="path-1-inside-1_2719_4521" fill="white">
    <path fill-rule="evenodd" clip-rule="evenodd" d="M8 259C3.58172 259 0 255.418 0 251V28.3307C0 25.7206 1.27331 23.2746 3.41139 21.7775L32.4467 1.44678C33.7916 0.505111 35.3936 0 37.0353 0H672C676.418 0 680 3.58172 680 8V230.783C680 233.393 678.727 235.839 676.589 237.337L647.716 257.553C646.371 258.495 644.769 259 643.128 259H8Z"/>
  </mask>
  <path d="M647.716 257.553L647.143 256.734L647.716 257.553ZM676.589 237.337L676.015 236.517L676.589 237.337ZM-1 28.3307V251H1V28.3307H-1ZM31.8731 0.627632L2.83782 20.9584L3.98497 22.5967L33.0203 2.26594L31.8731 0.627632ZM672 -1H37.0353V1H672V-1ZM681 230.783V8H679V230.783H681ZM648.29 258.372L677.162 238.156L676.015 236.517L647.143 256.734L648.29 258.372ZM8 260H643.128V258H8V260ZM647.143 256.734C645.966 257.558 644.564 258 643.128 258V260C644.974 260 646.777 259.432 648.29 258.372L647.143 256.734ZM679 230.783C679 233.067 677.886 235.207 676.015 236.517L677.162 238.156C679.568 236.471 681 233.72 681 230.783H679ZM672 1C675.866 1 679 4.13401 679 8H681C681 3.02944 676.971 -1 672 -1V1ZM33.0203 2.26594C34.197 1.44197 35.5988 1 37.0353 1V-1C35.1883 -1 33.3861 -0.431751 31.8731 0.627632L33.0203 2.26594ZM-1 251C-1 255.971 3.02944 260 8 260V258C4.13401 258 1 254.866 1 251H-1ZM1 28.3307C1 26.0469 2.11415 23.9066 3.98497 22.5967L2.83782 20.9584C0.432475 22.6426 -1 25.3944 -1 28.3307H1Z" fill="#34D3D7" mask="url(#path-1-inside-1_2719_4521)"/>
</svg>