<svg  viewBox="0 0 25 15" fill="none" xmlns="http://www.w3.org/2000/svg">
<g clip-path="url(#clip0_673_79)">
<path d="M24.1071 0H25V0.9375H24.1071V0Z" fill="#707070"/>
<path d="M23.2126 0H24.1055V0.9375H23.2126V0Z" fill="#707070"/>
<path d="M22.32 0H23.2129V0.9375H22.32V0Z" fill="#707070"/>
<path d="M21.4275 0H22.3203V0.9375H21.4275V0Z" fill="#707070"/>
<path d="M2.67746 0H3.57031V0.9375H2.67746V0Z" fill="#707070"/>
<path d="M1.78683 0H2.67969V0.9375H1.78683V0Z" fill="#707070"/>
<path d="M0.894252 0H1.78711V0.9375H0.894252V0Z" fill="#707070"/>
<path d="M0.00167406 0H0.894531V0.9375H0.00167406V0Z" fill="#707070"/>
<path d="M24.1071 0.9375H25V1.875H24.1071V0.9375Z" fill="#707070"/>
<path d="M23.2126 0.9375H24.1055V1.875H23.2126V0.9375Z" fill="#707070"/>
<path d="M22.32 0.9375H23.2129V1.875H22.32V0.9375Z" fill="#707070"/>
<path d="M21.4275 0.9375H22.3203V1.875H21.4275V0.9375Z" fill="#707070"/>
<path d="M2.67746 0.9375H3.57031V1.875H2.67746V0.9375Z" fill="#707070"/>
<path d="M1.78683 0.9375H2.67969V1.875H1.78683V0.9375Z" fill="#707070"/>
<path d="M0.894252 0.9375H1.78711V1.875H0.894252V0.9375Z" fill="#707070"/>
<path d="M0.00167406 0.9375H0.894531V1.875H0.00167406V0.9375Z" fill="#707070"/>
<path d="M24.1071 1.875H25V2.8125H24.1071V1.875Z" fill="#707070"/>
<path d="M23.2126 1.875H24.1055V2.8125H23.2126V1.875Z" fill="#707070"/>
<path d="M22.32 1.875H23.2129V2.8125H22.32V1.875Z" fill="#707070"/>
<path d="M21.4275 1.875H22.3203V2.8125H21.4275V1.875Z" fill="#707070"/>
<path d="M2.67746 1.875H3.57031V2.8125H2.67746V1.875Z" fill="#707070"/>
<path d="M1.78683 1.875H2.67969V2.8125H1.78683V1.875Z" fill="#707070"/>
<path d="M0.894252 1.875H1.78711V2.8125H0.894252V1.875Z" fill="#707070"/>
<path d="M0.00167406 1.875H0.894531V2.8125H0.00167406V1.875Z" fill="#707070"/>
<path d="M24.1071 2.8125H25V3.75H24.1071V2.8125Z" fill="#707070"/>
<path d="M23.2126 2.8125H24.1055V3.75H23.2126V2.8125Z" fill="#707070"/>
<path d="M22.32 2.8125H23.2129V3.75H22.32V2.8125Z" fill="#707070"/>
<path d="M21.4275 2.8125H22.3203V3.75H21.4275V2.8125Z" fill="#707070"/>
<path d="M2.67746 2.8125H3.57031V3.75H2.67746V2.8125Z" fill="#707070"/>
<path d="M1.78683 2.8125H2.67969V3.75H1.78683V2.8125Z" fill="#707070"/>
<path d="M0.894252 2.8125H1.78711V3.75H0.894252V2.8125Z" fill="#707070"/>
<path d="M0.00167406 2.8125H0.894531V3.75H0.00167406V2.8125Z" fill="#707070"/>
<path d="M20.5368 3.75H21.4297V4.6875H20.5368V3.75Z" fill="#707070"/>
<path d="M19.6443 3.75H20.5371V4.6875H19.6443V3.75Z" fill="#707070"/>
<path d="M18.7497 3.75H19.6426V4.6875H18.7497V3.75Z" fill="#707070"/>
<path d="M17.8571 3.75H18.75V4.6875H17.8571V3.75Z" fill="#707070"/>
<path d="M6.25167 3.75H7.14453V4.6875H6.25167V3.75Z" fill="#707070"/>
<path d="M5.35714 3.75H6.25V4.6875H5.35714V3.75Z" fill="#707070"/>
<path d="M4.46261 3.75H5.35547V4.6875H4.46261V3.75Z" fill="#707070"/>
<path d="M3.57003 3.75H4.46289V4.6875H3.57003V3.75Z" fill="#707070"/>
<path d="M20.5368 4.6875H21.4297V5.625H20.5368V4.6875Z" fill="#707070"/>
<path d="M19.6443 4.6875H20.5371V5.625H19.6443V4.6875Z" fill="#707070"/>
<path d="M18.7497 4.6875H19.6426V5.625H18.7497V4.6875Z" fill="#707070"/>
<path d="M17.8571 4.6875H18.75V5.625H17.8571V4.6875Z" fill="#707070"/>
<path d="M6.25167 4.6875H7.14453V5.625H6.25167V4.6875Z" fill="#707070"/>
<path d="M5.35714 4.6875H6.25V5.625H5.35714V4.6875Z" fill="#707070"/>
<path d="M4.46261 4.6875H5.35547V5.625H4.46261V4.6875Z" fill="#707070"/>
<path d="M3.57003 4.6875H4.46289V5.625H3.57003V4.6875Z" fill="#707070"/>
<path d="M20.5368 5.625H21.4297V6.5625H20.5368V5.625Z" fill="#707070"/>
<path d="M19.6443 5.625H20.5371V6.5625H19.6443V5.625Z" fill="#707070"/>
<path d="M18.7497 5.625H19.6426V6.5625H18.7497V5.625Z" fill="#707070"/>
<path d="M17.8571 5.625H18.75V6.5625H17.8571V5.625Z" fill="#707070"/>
<path d="M6.25167 5.625H7.14453V6.5625H6.25167V5.625Z" fill="#707070"/>
<path d="M5.35714 5.625H6.25V6.5625H5.35714V5.625Z" fill="#707070"/>
<path d="M4.46261 5.625H5.35547V6.5625H4.46261V5.625Z" fill="#707070"/>
<path d="M3.57003 5.625H4.46289V6.5625H3.57003V5.625Z" fill="#707070"/>
<path d="M20.5368 6.5625H21.4297V7.5H20.5368V6.5625Z" fill="#707070"/>
<path d="M19.6443 6.5625H20.5371V7.5H19.6443V6.5625Z" fill="#707070"/>
<path d="M18.7497 6.5625H19.6426V7.5H18.7497V6.5625Z" fill="#707070"/>
<path d="M17.8571 6.5625H18.75V7.5H17.8571V6.5625Z" fill="#707070"/>
<path d="M6.25167 6.5625H7.14453V7.5H6.25167V6.5625Z" fill="#707070"/>
<path d="M5.35714 6.5625H6.25V7.5H5.35714V6.5625Z" fill="#707070"/>
<path d="M4.46261 6.5625H5.35547V7.5H4.46261V6.5625Z" fill="#707070"/>
<path d="M3.57003 6.5625H4.46289V7.5H3.57003V6.5625Z" fill="#707070"/>
<path d="M16.9646 7.5H17.8574V8.4375H16.9646V7.5Z" fill="#707070"/>
<path d="M16.07 7.5H16.9629V8.4375H16.07V7.5Z" fill="#707070"/>
<path d="M15.1775 7.5H16.0703V8.4375H15.1775V7.5Z" fill="#707070"/>
<path d="M14.2888 7.5H15.1816V8.4375H14.2888V7.5Z" fill="#707070"/>
<path d="M9.82003 7.5H10.7129V8.4375H9.82003V7.5Z" fill="#707070"/>
<path d="M8.9255 7.5H9.81836V8.4375H8.9255V7.5Z" fill="#707070"/>
<path d="M8.03878 7.5H8.93164V8.4375H8.03878V7.5Z" fill="#707070"/>
<path d="M7.14425 7.5H8.03711V8.4375H7.14425V7.5Z" fill="#707070"/>
<path d="M16.9646 8.4375H17.8574V9.375H16.9646V8.4375Z" fill="#707070"/>
<path d="M16.07 8.4375H16.9629V9.375H16.07V8.4375Z" fill="#707070"/>
<path d="M15.1775 8.4375H16.0703V9.375H15.1775V8.4375Z" fill="#707070"/>
<path d="M14.2888 8.4375H15.1816V9.375H14.2888V8.4375Z" fill="#707070"/>
<path d="M9.82003 8.4375H10.7129V9.375H9.82003V8.4375Z" fill="#707070"/>
<path d="M8.9255 8.4375H9.81836V9.375H8.9255V8.4375Z" fill="#707070"/>
<path d="M8.03878 8.4375H8.93164V9.375H8.03878V8.4375Z" fill="#707070"/>
<path d="M7.14425 8.4375H8.03711V9.375H7.14425V8.4375Z" fill="#707070"/>
<path d="M16.9646 9.375H17.8574V10.3125H16.9646V9.375Z" fill="#707070"/>
<path d="M16.07 9.375H16.9629V10.3125H16.07V9.375Z" fill="#707070"/>
<path d="M15.1775 9.375H16.0703V10.3125H15.1775V9.375Z" fill="#707070"/>
<path d="M14.2888 9.375H15.1816V10.3125H14.2888V9.375Z" fill="#707070"/>
<path d="M9.82003 9.375H10.7129V10.3125H9.82003V9.375Z" fill="#707070"/>
<path d="M8.9255 9.375H9.81836V10.3125H8.9255V9.375Z" fill="#707070"/>
<path d="M8.03878 9.375H8.93164V10.3125H8.03878V9.375Z" fill="#707070"/>
<path d="M7.14425 9.375H8.03711V10.3125H7.14425V9.375Z" fill="#707070"/>
<path d="M16.9646 10.3125H17.8574V11.25H16.9646V10.3125Z" fill="#707070"/>
<path d="M16.07 10.3125H16.9629V11.25H16.07V10.3125Z" fill="#707070"/>
<path d="M15.1775 10.3125H16.0703V11.25H15.1775V10.3125Z" fill="#707070"/>
<path d="M14.2888 10.3125H15.1816V11.25H14.2888V10.3125Z" fill="#707070"/>
<path d="M9.82003 10.3125H10.7129V11.25H9.82003V10.3125Z" fill="#707070"/>
<path d="M8.9255 10.3125H9.81836V11.25H8.9255V10.3125Z" fill="#707070"/>
<path d="M8.03878 10.3125H8.93164V11.25H8.03878V10.3125Z" fill="#707070"/>
<path d="M7.14425 10.3125H8.03711V11.25H7.14425V10.3125Z" fill="#707070"/>
<path d="M13.3943 11.25H14.2871V12.1875H13.3943V11.25Z" fill="#707070"/>
<path d="M12.5017 11.25H13.3945V12.1875H12.5017V11.25Z" fill="#707070"/>
<path d="M11.6071 11.25H12.5V12.1875H11.6071V11.25Z" fill="#707070"/>
<path d="M10.7126 11.25H11.6055V12.1875H10.7126V11.25Z" fill="#707070"/>
<path d="M13.3943 12.1875H14.2871V13.125H13.3943V12.1875Z" fill="#707070"/>
<path d="M12.5017 12.1875H13.3945V13.125H12.5017V12.1875Z" fill="#707070"/>
<path d="M11.6071 12.1875H12.5V13.125H11.6071V12.1875Z" fill="#707070"/>
<path d="M10.7126 12.1875H11.6055V13.125H10.7126V12.1875Z" fill="#707070"/>
<path d="M13.3943 13.125H14.2871V14.0625H13.3943V13.125Z" fill="#707070"/>
<path d="M12.5017 13.125H13.3945V14.0625H12.5017V13.125Z" fill="#707070"/>
<path d="M11.6071 13.125H12.5V14.0625H11.6071V13.125Z" fill="#707070"/>
<path d="M10.7126 13.125H11.6055V14.0625H10.7126V13.125Z" fill="#707070"/>
<path d="M13.3943 14.0625H14.2871V15H13.3943V14.0625Z" fill="#707070"/>
<path d="M12.5017 14.0625H13.3945V15H12.5017V14.0625Z" fill="#707070"/>
<path d="M11.6071 14.0625H12.5V15H11.6071V14.0625Z" fill="#707070"/>
<path d="M10.7126 14.0625H11.6055V15H10.7126V14.0625Z" fill="#707070"/>
</g>
<defs>
<clipPath id="clip0_673_79">
<rect width="25" height="15" fill="white" transform="matrix(-1 0 0 1 25 0)"/>
</clipPath>
</defs>
</svg>
